<svg width="24" height="24" viewBox="0 0 24 24" fill="none" xmlns="http://www.w3.org/2000/svg">
  <g id="avatar">
    <path id="Vector" d="M14 10H10V14H14V10Z" fill="#A993DE"/>
    <path id="Vector_2" d="M14 6H10V10H14V6Z" fill="#A993DE"/>
    <path id="Vector_3" d="M10 6H6V10H10V6Z" fill="#A993DE"/>
    <path id="Vector_4" d="M6 6H2V10H6V6Z" fill="#A993DE"/>
    <path id="Vector_5" d="M6 10H2V14H6V10Z" fill="#A993DE"/>
    <path id="Vector_6" d="M14 18H10V22H14V18Z" fill="#A993DE"/>
    <path id="Vector_7" d="M10 14H6V18H10V14Z" fill="#A993DE"/>
    <path id="Vector_8" d="M14 14H10V18H14V14Z" fill="#A993DE"/>
    <path id="Vector_9" d="M18 14H14V18H18V14Z" fill="#A993DE"/>
    <path id="Vector_10" d="M22 10H18V14H22V10Z" fill="#A993DE"/>
    <path id="Vector_11" d="M22 6H18V10H22V6Z" fill="#A993DE"/>
    <path id="Vector_12" d="M22 2H18V6H22V2Z" fill="#A993DE"/>
    <path id="Vector_13" d="M18 2H14V6H18V2Z" fill="#A993DE"/>
    <path id="Vector_14" d="M10 2H6V6H10V2Z" fill="#A993DE"/>
    <path id="Vector_15" d="M6 2H2V6H6V2Z" fill="#A993DE"/>
    <path id="Vector_16" d="M18 6H14V10H18V6Z" fill="#A993DE"/>
  </g>
</svg>
